<svg width="26" height="16" viewBox="0 0 26 16" fill="none" xmlns="http://www.w3.org/2000/svg">
<path d="M24.1658 5.03223C23.7883 5.03223 23.4839 5.33663 23.4839 5.71328V9.22571H2.51612V0.681048C2.51612 0.304384 2.21085 0 1.83507 0H0.681047C0.305275 0 0 0.304395 0 0.681048V15.2536C0 15.631 0.305268 15.9353 0.681047 15.9353H1.83507C2.21084 15.9353 2.51612 15.631 2.51612 15.2543V13.4192H23.4839V15.2543C23.4839 15.631 23.7883 15.9353 24.1658 15.9353H25.319C25.6956 15.9353 26 15.631 26 15.2543V5.7131C26 5.33643 25.6956 5.03205 25.319 5.03205L24.1658 5.03223Z" fill="#A6B0A5"/>
<path d="M8.27386 5.02956C8.27386 6.39006 7.17106 7.49286 5.81056 7.49286C4.45021 7.49286 3.34741 6.39006 3.34741 5.02956C3.34741 3.66921 4.45021 2.56641 5.81056 2.56641C7.17106 2.56641 8.27386 3.66921 8.27386 5.02956Z" fill="#A6B0A5"/>
<path d="M11.8861 2.55218C11.2075 2.48166 10.5306 2.70321 10.0241 3.16024C9.51761 3.61653 9.22571 4.26742 9.22571 4.94918V7.54842H22.7675C21.7897 5.60671 17.9163 3.1745 11.8862 2.55199L11.8861 2.55218Z" fill="#A6B0A5"/>
</svg>
