<svg width="11" height="11" viewBox="0 0 11 11" fill="none" xmlns="http://www.w3.org/2000/svg">
<path d="M8.42349 7.20127L9.6418 8.41957C9.83963 8.6174 9.83963 8.93815 9.6418 9.13598C8.57223 10.2055 6.87896 10.3259 5.66888 9.41833L5.05348 8.95678C3.91251 8.10105 2.89895 7.08749 2.04322 5.94652L1.58167 5.33112C0.674115 4.12104 0.794452 2.42777 1.86402 1.3582C2.06185 1.16037 2.3826 1.16037 2.58043 1.3582L3.79873 2.57651C4.15535 2.93313 4.15535 3.51132 3.79873 3.86793L3.4843 4.18236C3.39415 4.27252 3.37179 4.41026 3.42881 4.5243C4.08807 5.84281 5.15719 6.91193 6.4757 7.57119C6.58975 7.62821 6.72748 7.60586 6.81764 7.5157L7.13207 7.20127C7.48868 6.84465 8.06687 6.84465 8.42349 7.20127Z" stroke="#5F7161"/>
</svg>
