<svg width="20" height="29" viewBox="0 0 20 29" fill="none" xmlns="http://www.w3.org/2000/svg">
<path d="M19.3324 27.6991H13.0373H2.98939H0.667632C0.882208 27.9137 1.10336 28.1349 1.31793 28.3495V25.5847V18.9757V10.9871V4.05276V1.78236C1.31793 1.42456 1.35036 1.04728 1.31793 0.696058V0.650455C1.10335 0.865084 0.882196 1.08629 0.667632 1.30091H6.96269H17.0106H19.3324C19.1178 1.08628 18.8966 0.865072 18.6821 0.650455V3.41525V10.0243V18.0129V24.9472C18.6821 26.0662 18.6431 27.1916 18.6821 28.3039V28.3495C18.6821 29.1888 19.9827 29.1888 19.9827 28.3495V25.5847V18.9757V10.9871V4.05276C19.9827 2.93377 20.0217 1.80844 19.9827 0.696058V0.650455C19.9827 0.299242 19.6835 0 19.3324 0H13.0373H2.98939H0.667632C0.316506 0 0.0173396 0.299253 0.0173396 0.650455V3.41525V10.0243V18.0129V24.9472C0.0173396 26.0662 -0.0216745 27.1916 0.0173396 28.3039V28.3495C0.0173396 28.7008 0.316518 29 0.667632 29H6.96269H17.0106H19.3324C20.1714 29.0002 20.1714 27.6991 19.3324 27.6991Z" fill="#7F8D81"/>
<path d="M16.4447 14.5C16.4317 15.0334 16.0155 15.4693 15.4756 15.4693C14.9424 15.4693 14.5066 15.0334 14.5066 14.5C14.5066 13.9732 14.9423 13.5307 15.4756 13.5307C16.0155 13.5307 16.4251 13.9666 16.4447 14.5C16.4642 15.3327 17.7647 15.3392 17.7452 14.5C17.7192 13.5374 17.1469 12.7047 16.243 12.3664C15.3845 12.0411 14.3503 12.3208 13.7651 13.0169C13.1473 13.7454 13.0302 14.8122 13.5245 15.6449C14.0122 16.4775 14.9814 16.8938 15.9177 16.7248C16.9908 16.5363 17.7258 15.5605 17.7518 14.5C17.7648 13.6608 16.4641 13.6608 16.4446 14.5H16.4447Z" fill="#7F8D81"/>
</svg>
