<svg width="16" height="18" viewBox="0 0 16 18" fill="none" xmlns="http://www.w3.org/2000/svg">
<path fill-rule="evenodd" clip-rule="evenodd" d="M0.714005 5.97002C0.416672 6.61649 0.416672 7.35194 0.416672 8.82284V13.4166C0.416672 15.4594 0.416672 16.4807 1.05127 17.1153C1.63653 17.7006 2.55074 17.7461 4.29167 17.7496V12.3333C4.29167 11.1827 5.22441 10.25 6.37501 10.25H9.62501C10.7756 10.25 11.7083 11.1827 11.7083 12.3333V17.7496C13.4493 17.7461 14.3635 17.7006 14.9487 17.1153C15.5833 16.4807 15.5833 15.4594 15.5833 13.4166V8.82284C15.5833 7.35194 15.5833 6.61649 15.286 5.97002C14.9887 5.32355 14.4303 4.84493 13.3135 3.88768L12.2301 2.9591C10.2116 1.22888 9.20226 0.36377 8.00001 0.36377C6.79775 0.36377 5.78846 1.22888 3.76986 2.9591L2.68653 3.88768C1.56973 4.84493 1.01134 5.32355 0.714005 5.97002ZM9.70834 17.7499V12.3333C9.70834 12.2873 9.67103 12.25 9.62501 12.25H6.37501C6.32898 12.25 6.29167 12.2873 6.29167 12.3333V17.7499H9.70834Z" fill="#5F7161"/>
</svg>
