<svg width="11" height="11" viewBox="0 0 11 11" fill="none" xmlns="http://www.w3.org/2000/svg">
<path d="M6.5759 1.57574L1.96761 6.18402C1.95581 6.19582 1.94403 6.20758 1.93228 6.21929C1.77265 6.37847 1.6192 6.53148 1.51081 6.72293C1.40241 6.91438 1.35015 7.12468 1.29578 7.34346C1.29178 7.35956 1.28777 7.37571 1.28372 7.39191L0.953524 8.71269C0.951115 8.72233 0.948677 8.73206 0.946218 8.74187C0.907606 8.89594 0.863935 9.0702 0.849431 9.21847C0.833277 9.38359 0.834763 9.68283 1.07605 9.92412C1.31733 10.1654 1.61657 10.1669 1.78169 10.1507C1.92996 10.1362 2.10423 10.0926 2.2583 10.0539C2.26811 10.0515 2.27784 10.049 2.28747 10.0466L3.60826 9.71644C3.62445 9.71239 3.6406 9.70838 3.65671 9.70438C3.87548 9.65001 4.08578 9.59775 4.27723 9.48936C4.46868 9.38096 4.62169 9.22752 4.78086 9.06789C4.79258 9.05614 4.80434 9.04435 4.81614 9.03255L9.42443 4.42426C9.44207 4.40662 9.45966 4.38909 9.47717 4.37165C9.69616 4.15341 9.90141 3.94888 10.0196 3.71043C10.2414 3.26278 10.2414 2.73722 10.0196 2.28957C9.90141 2.05112 9.69616 1.84659 9.47717 1.62835C9.45966 1.61091 9.44207 1.59338 9.42443 1.57574C9.40679 1.55809 9.38925 1.5405 9.37181 1.523C9.15358 1.304 8.94904 1.09875 8.71059 0.980583C8.26295 0.758757 7.73738 0.758757 7.28974 0.980583C7.05128 1.09875 6.84675 1.304 6.62851 1.523C6.61107 1.5405 6.59354 1.5581 6.5759 1.57574Z" stroke="#1890FF" stroke-width="1.2"/>
</svg>
