<svg width="20" height="20" viewBox="0 0 20 20" fill="none" xmlns="http://www.w3.org/2000/svg">
<path fill-rule="evenodd" clip-rule="evenodd" d="M0.833344 8.83334C0.833344 5.06211 0.833344 3.17649 2.00492 2.00492C3.17649 0.833344 5.06211 0.833344 8.83334 0.833344H11.1667C14.9379 0.833344 16.8235 0.833344 17.9951 2.00492C19.1667 3.17649 19.1667 5.06211 19.1667 8.83334V11.1667C19.1667 14.9379 19.1667 16.8235 17.9951 17.9951C16.8235 19.1667 14.9379 19.1667 11.1667 19.1667H8.83334C5.06211 19.1667 3.17649 19.1667 2.00492 17.9951C0.833344 16.8235 0.833344 14.9379 0.833344 11.1667V8.83334ZM6.04306 14.0099C7.17825 13.1388 8.56914 12.6667 10 12.6667C11.4309 12.6667 12.8218 13.1388 13.957 14.0099C15.0921 14.8809 15.9082 16.1022 16.2785 17.4844C16.4215 18.0178 16.1049 18.5662 15.5714 18.7091C15.038 18.852 14.4896 18.5355 14.3467 18.002C14.0903 17.0451 13.5253 16.1996 12.7394 15.5966C11.9535 14.9935 10.9906 14.6667 10 14.6667C9.00941 14.6667 8.04648 14.9935 7.26058 15.5966C6.47469 16.1996 5.90973 17.0451 5.65334 18.002C5.5104 18.5355 4.96207 18.852 4.4286 18.7091C3.89513 18.5662 3.57855 18.0178 3.72149 17.4844C4.09183 16.1022 4.90787 14.8809 6.04306 14.0099ZM8.25001 7.25001C8.25001 6.28351 9.03351 5.50001 10 5.50001C10.9665 5.50001 11.75 6.28351 11.75 7.25001C11.75 8.21651 10.9665 9.00001 10 9.00001C9.03351 9.00001 8.25001 8.21651 8.25001 7.25001ZM10 3.50001C7.92894 3.50001 6.25001 5.17894 6.25001 7.25001C6.25001 9.32108 7.92894 11 10 11C12.0711 11 13.75 9.32108 13.75 7.25001C13.75 5.17894 12.0711 3.50001 10 3.50001Z" fill="#5F7161"/>
</svg>
